<svg width="834" height="640" viewBox="0 0 834 640" fill="none" xmlns="http://www.w3.org/2000/svg">
<rect width="834" height="640" fill="#E5E5E5"/>
<path d="M832.5 1H1V639H832.5V1Z" fill="#89B774" stroke="white"/>
<path d="M1 393C1 393 69 401 126.5 439C184 477 173 506 226.5 529.5C280 553 439.5 491.5 539.5 505.5C639.5 519.5 624 553 624 553L690 639H1V393Z" fill="#229C46" fill-opacity="0.2"/>
<path d="M548.295 1H833.295V160.698C833.295 160.698 724.295 117 688.795 119.5C653.295 122 582.295 176.397 548.295 160.698C514.295 145 518.295 108.5 514.295 74.5C510.295 40.5 548.295 1 548.295 1Z" fill="#229C46" fill-opacity="0.2"/>
</svg>
