<svg height="512pt" viewBox="0 0 512 512" width="512pt" xmlns="http://www.w3.org/2000/svg"><path d="m512 256c0 141.386719-114.613281 256-256 256s-256-114.613281-256-256 114.613281-256 256-256 256 114.613281 256 256zm0 0" fill="#fdbf00"/><path d="m504.5625 194.570312-104.566406-104.566406-55.15625 55.15625-48.03125-48.03125-109.496094 109.496094 29.207031 29.207031-1.175781 1.179688 74.421875 74.421875 1.175781-1.175782 22.414063 22.410157-4.859375 4.859375-150.1875-150.1875-72.308594 22.328125-2.332031 36.332031.078125 23.402344 146.4375 146.4375-4.171875 4.171875 85.855469 85.855469c114.515624-25.492188 200.132812-127.671876 200.132812-249.867188 0-21.179688-2.589844-41.75-7.4375-61.429688zm0 0" fill="#ff9100"/><path d="m400 281.683594v60.328125l-58.007812 77.988281h-19.335938l-9.667969-7.734375-87.011719-70.253906v-60.328125l15.664063-9.667969h145.789063zm0 0" fill="#faecd8"/><path d="m387.429688 272.015625 12.570312 9.667969v60.328125l-58.007812 77.988281h-19.335938l-9.667969-7.734375v-140.25zm0 0" fill="#f4d7af"/><path d="m216.308594 342.011719c-15.992188 0-29.003906-13.007813-29.003906-29.003907 0-26.652343-21.6875-48.339843-48.339844-48.339843h-20.625c-15.992188 0-29.003906-13.011719-29.003906-29.003907 0-15.992187 13.011718-29.003906 29.003906-29.003906h39.960937v-19.335937h-39.960937c-26.652344 0-48.339844 21.6875-48.339844 48.339843 0 26.652344 21.6875 48.339844 48.339844 48.339844h20.625c15.996094 0 29.003906 13.011719 29.003906 29.003906 0 26.652344 21.6875 48.339844 48.339844 48.339844h29.003906v-19.335937zm0 0" fill="#aefafc"/><path d="m264.648438 109.335938h-38.671876l-38.671874 38.671874v58.652344h77.34375l19.335937-19.335937v-64.292969zm0 0" fill="#5bc980"/><path d="m264.648438 90v116.660156h135.351562v-116.660156zm0 0" fill="#ececf1"/><path d="m225.976562 342.011719h96.679688v77.988281h-96.679688zm0 0" fill="#575f64"/><path d="m341.992188 342.011719h58.007812v77.988281h-58.007812zm0 0" fill="#8c4a37"/><path d="m235.644531 245.332031c-15.992187 0-29.003906-13.011719-29.003906-29.003906s13.011719-29.003906 29.003906-29.003906c15.996094 0 29.003907 13.011719 29.003907 29.003906s-13.011719 29.003906-29.003907 29.003906zm0 0" fill="#575f64"/><path d="m235.644531 225.996094c-5.332031 0-9.667969-4.335938-9.667969-9.667969 0-5.335937 4.335938-9.667969 9.667969-9.667969 5.335938 0 9.667969 4.332032 9.667969 9.667969 0 5.332031-4.332031 9.667969-9.667969 9.667969zm0 0" fill="#f2f2fc"/><path d="m356.492188 264.667969-19.335938 8.460937 19.335938 8.457032c0 12.011718 9.742187 21.753906 21.753906 21.753906 12.015625 0 21.753906-9.738282 21.753906-21.753906v-16.917969zm0 0" fill="#ff9100"/><path d="m225.976562 109.335938h-9.667968c-15.992188 0-29.003906 13.011718-29.003906 29.003906v9.667968h38.671874zm0 0" fill="#575f64"/><path d="m312.988281 90h87.011719v116.660156h-87.011719zm0 0" fill="#d3d3d8"/><path d="m312.988281 342.011719h9.667969v77.988281h-9.667969zm0 0" fill="#32393f"/><path d="m245.3125 361.347656h58.007812v39.316406h-58.007812zm0 0" fill="#9bfcff"/><path d="m312.988281 264.667969-19.335937 7.554687 19.335937 9.363282c0 12.015624 9.738281 21.753906 21.753907 21.753906 12.011718 0 21.75-9.738282 21.75-21.753906v-16.917969zm0 0" fill="#e63950"/><path d="m269.480469 264.667969-19.335938 8.460937 19.335938 8.457032c0 12.011718 9.742187 21.753906 21.753906 21.753906 12.015625 0 21.753906-9.742188 21.753906-21.753906v-16.917969zm0 0" fill="#fdbf00"/><path d="m225.976562 264.667969v16.917969c0 12.015624 9.738282 21.753906 21.753907 21.753906 12.011719 0 21.753906-9.738282 21.753906-21.753906v-16.917969zm0 0" fill="#ff637b"/><path d="m351.660156 245.332031c-15.996094 0-29.003906-13.011719-29.003906-29.003906s13.007812-29.003906 29.003906-29.003906c15.992188 0 29.003906 13.011719 29.003906 29.003906s-13.011718 29.003906-29.003906 29.003906zm0 0" fill="#32393f"/><path d="m351.660156 225.996094c-5.335937 0-9.667968-4.335938-9.667968-9.667969 0-5.335937 4.332031-9.667969 9.667968-9.667969 5.332032 0 9.667969 4.332032 9.667969 9.667969 0 5.332031-4.332031 9.667969-9.667969 9.667969zm0 0" fill="#d8d8fc"/></svg>